<svg xmlns="http://www.w3.org/2000/svg" viewBox="3.5 6 223.57 272.9" width="493" height="602" role="img" aria-label="NAISI emblem">
<title>NAISI emblem, header cut, Night</title>

<g fill="#00d4ff" fill-rule="evenodd" transform="translate(-8.5 8.5)"><path d="M46 6H80V34H108V6H142V34H176V6H204V64.98L166 55.48L89 74.73V132A117 117 0 0 0 116 206.76V216.93C104.35 212.71 91.48 209.88 76.65 209.88C65.18 209.88 53.31 211.94 42 217.62V186L56 172V88L46 78ZM66.5 158H79.5V112.5A6.5 6.5 0 0 0 66.5 112.5Z"></path><path d="M130.26 197.29A100 100 0 0 1 106 132V88L166 73L226 88V132A100 100 0 0 1 166 223.65L175.13 187.08C175.61 185.01 176.2 182 178.17 180.79C183.38 177.59 198.03 185.08 199.98 174.24C200.57 170.97 198.85 170.35 198.88 168.27C199.27 167.29 200.29 166.98 200.84 166.13C201.34 165.37 201.71 161.6 201.68 160.6C201.38 159.8 200.56 159.29 200.55 158.38C201.68 155.93 207.06 158.41 207.96 154.54C208.81 150.94 201.4 141.6 200.35 137.34C199.82 135.17 200.98 132.7 200.98 130.48C200.98 124.33 200.07 118.64 196.84 113.28C189.05 100.32 168.75 95.6 154.81 99.5C149.1 101.1 143.67 104.37 139.49 108.55C128.67 119.36 125.44 137.38 132.07 151.25C134.18 155.68 141.63 163.55 142.13 166.67C143.04 172.27 138.93 181.12 136.31 186.01L130.26 197.29Z"></path><path d="M181.51 254.87C164.21 254.87 151.99 250.8 136.21 242.91C119.41 234.26 100.58 226.88 76.65 226.88C54.25 226.88 30.33 234.77 12 262C33.89 248.51 54 244.18 71.05 244.18C89.12 244.18 103.12 248.77 117.12 256.15C133.15 264.55 146.9 270.4 167.01 270.4C186.35 270.4 208.24 263.02 227.07 238.33C212.06 250.8 196.02 254.87 181.51 254.87Z"></path></g><g fill="#ffffff" fill-rule="evenodd"><path d="M46 6H80V34H108V6H142V34H176V6H204V64.98L166 55.48L89 74.73V132A117 117 0 0 0 116 206.76V216.93C104.35 212.71 91.48 209.88 76.65 209.88C65.18 209.88 53.31 211.94 42 217.62V186L56 172V88L46 78ZM66.5 158H79.5V112.5A6.5 6.5 0 0 0 66.5 112.5Z"></path><path d="M130.26 197.29A100 100 0 0 1 106 132V88L166 73L226 88V132A100 100 0 0 1 166 223.65L175.13 187.08C175.61 185.01 176.2 182 178.17 180.79C183.38 177.59 198.03 185.08 199.98 174.24C200.57 170.97 198.85 170.35 198.88 168.27C199.27 167.29 200.29 166.98 200.84 166.13C201.34 165.37 201.71 161.6 201.68 160.6C201.38 159.8 200.56 159.29 200.55 158.38C201.68 155.93 207.06 158.41 207.96 154.54C208.81 150.94 201.4 141.6 200.35 137.34C199.82 135.17 200.98 132.7 200.98 130.48C200.98 124.33 200.07 118.64 196.84 113.28C189.05 100.32 168.75 95.6 154.81 99.5C149.1 101.1 143.67 104.37 139.49 108.55C128.67 119.36 125.44 137.38 132.07 151.25C134.18 155.68 141.63 163.55 142.13 166.67C143.04 172.27 138.93 181.12 136.31 186.01L130.26 197.29Z"></path><path d="M181.51 254.87C164.21 254.87 151.99 250.8 136.21 242.91C119.41 234.26 100.58 226.88 76.65 226.88C54.25 226.88 30.33 234.77 12 262C33.89 248.51 54 244.18 71.05 244.18C89.12 244.18 103.12 248.77 117.12 256.15C133.15 264.55 146.9 270.4 167.01 270.4C186.35 270.4 208.24 263.02 227.07 238.33C212.06 250.8 196.02 254.87 181.51 254.87Z"></path></g>
</svg>